<?xml version="1.0" encoding="UTF-8"?><svg id="Capa_1" xmlns="http://www.w3.org/2000/svg" viewBox="0 0 1000 300"><defs><style>.cls-1{fill:#0077be;}.cls-2{fill:#009fa0;}.cls-3{fill:#b0dcdd;}.cls-4{fill:#50bcbe;}.cls-5{fill:#fff;stroke:#fff;stroke-miterlimit:10;stroke-width:.3px;}</style></defs><g><path class="cls-1" d="M36.24,169.69V86.12h35.65c15.9,0,23.84,6.68,23.84,20.04,0,15.08-11.08,24.41-33.25,27.99l-2.22-9.12c15.97-2.53,23.96-8.67,23.96-18.41,0-7.71-4.44-11.57-13.32-11.57h-23.84v74.63h-10.81Z"/><path class="cls-1" d="M156.98,108.33v61.36h-7.42l-1.87-7.83c-7.44,5.22-14.92,7.83-22.44,7.83-14.1,0-21.15-7.62-21.15-22.85v-38.51h10.81v38.69c0,9.12,4.52,13.67,13.56,13.67,6.2,0,12.1-2.59,17.71-7.77v-44.59h10.81Z"/><path class="cls-1" d="M217.94,142.11h-41.32c0,12.54,7.91,18.82,23.73,18.82,5.41,0,10.83-.58,16.25-1.75v8.77c-5.42,1.17-12,1.75-19.75,1.75-20.69,0-31.03-10.46-31.03-31.38s9.8-29.98,29.4-29.98,26.36,11.26,22.73,33.78Zm-41.32-9h31.44c.55-10.75-4.32-16.13-14.61-16.13s-16.13,5.38-16.83,16.13Z"/><path class="cls-1" d="M230.24,169.69v-61.36h7.3l1.93,7.83c5.37-5.22,11.84-7.83,19.4-7.83v9c-7.32,0-13.27,2.59-17.82,7.77v44.59h-10.81Z"/><path class="cls-1" d="M268.31,98.4h6.78l2.34,9.93h14.26v8.77h-12.57v35.24c0,5.73,2.48,8.59,7.42,8.59h5.14v8.77h-7.95c-10.28,0-15.43-5.51-15.43-16.54v-54.76Z"/><path class="cls-1" d="M299.01,139.01c0-20.45,9.74-30.68,29.22-30.68s29.22,10.23,29.22,30.68-9.74,30.62-29.22,30.62-29.14-10.21-29.22-30.62Zm29.22,21.91c12.27,0,18.41-7.38,18.41-22.15s-6.14-21.68-18.41-21.68-18.41,7.23-18.41,21.68,6.14,22.15,18.41,22.15Z"/><path class="cls-1" d="M433,150.59c0-12.59,8.3-18.88,24.89-18.88,6.11,0,11.46,.39,16.01,1.17v-5.78c0-6.66-5.51-9.99-16.54-9.99-6.31,0-12.78,.97-19.4,2.92v-8.77c6.62-1.95,13.09-2.92,19.4-2.92,18.23,0,27.35,6.54,27.35,19.64v41.72h-5.49l-4.32-4.32c-5.34,2.88-11.61,4.32-18.82,4.32-15.39,0-23.08-6.37-23.08-19.11Zm24.89-10.11c-9.39,0-14.08,3.31-14.08,9.94,0,7.01,4.09,10.52,12.27,10.52,7.48,0,13.42-1.6,17.82-4.79v-14.49c-4.29-.78-9.62-1.17-16.01-1.17Z"/><path class="cls-1" d="M508.28,86.13v83.57h-10.81V86.13h10.81Z"/><path class="cls-1" d="M519.51,110.85c8.14-1.67,16.56-2.51,25.25-2.51,19.67,0,29.51,9.72,29.51,29.16,0,21.47-9.89,32.2-29.69,32.2-4.91,0-9.66-.97-14.26-2.92v25.13h-10.81V110.85Zm10.81,46.34c4.25,2.1,8.98,3.16,14.2,3.16,12.74,0,19.11-7.66,19.11-22.97,0-13.36-6.33-20.05-18.99-20.05-5.46,0-10.23,.47-14.32,1.4v38.45Z"/><path class="cls-1" d="M580.93,150.59c0-12.59,8.29-18.88,24.89-18.88,6.12,0,11.46,.39,16.01,1.17v-5.78c0-6.66-5.51-9.99-16.54-9.99-6.31,0-12.78,.97-19.4,2.92v-8.77c6.62-1.95,13.09-2.92,19.4-2.92,18.23,0,27.35,6.54,27.35,19.64v41.72h-5.5l-4.32-4.32c-5.34,2.88-11.61,4.32-18.82,4.32-15.39,0-23.08-6.37-23.08-19.11Zm24.89-10.11c-9.39,0-14.08,3.31-14.08,9.94,0,7.01,4.09,10.52,12.27,10.52,7.48,0,13.42-1.6,17.82-4.79v-14.49c-4.28-.78-9.62-1.17-16.01-1.17Z"/><path class="cls-1" d="M644.4,169.69v-61.36h7.3l1.93,7.83c5.38-5.22,11.84-7.83,19.4-7.83v9c-7.32,0-13.26,2.59-17.82,7.77v44.59h-10.81Z"/><path class="cls-1" d="M677.02,150.59c0-12.59,8.3-18.88,24.9-18.88,6.12,0,11.45,.39,16.01,1.17v-5.78c0-6.66-5.51-9.99-16.54-9.99-6.31,0-12.78,.97-19.4,2.92v-8.77c6.62-1.95,13.09-2.92,19.4-2.92,18.23,0,27.35,6.54,27.35,19.64v41.72h-5.49l-4.33-4.32c-5.34,2.88-11.61,4.32-18.82,4.32-15.39,0-23.09-6.37-23.09-19.11Zm24.9-10.11c-9.39,0-14.08,3.31-14.08,9.94,0,7.01,4.09,10.52,12.27,10.52,7.48,0,13.42-1.6,17.82-4.79v-14.5c-4.29-.78-9.62-1.17-16.01-1.17Z"/><path class="cls-1" d="M759,81.74v8.77l-23.38,8.77v-8.77l23.38-8.77Zm-6.43,26.59v61.36h-10.82v-61.36h10.82Z"/><path class="cls-1" d="M766.06,166.77v-9.35c6.82,2.34,13.91,3.51,21.27,3.51,9.78,0,14.66-2.92,14.66-8.77,0-5.45-3.21-8.18-9.64-8.18h-9.93c-12.86,0-19.29-6.04-19.29-18.12s8.51-17.53,25.54-17.53c7.32,0,14.39,.97,21.21,2.92v9.35c-6.82-2.34-13.89-3.51-21.21-3.51-10.21,0-15.31,2.92-15.31,8.77,0,5.46,3.02,8.18,9.06,8.18h9.93c13.64,0,20.45,6.04,20.45,18.12s-8.49,17.53-25.48,17.53c-7.37,0-14.45-.97-21.27-2.92Z"/><path class="cls-1" d="M820.45,139.01c0-20.45,9.74-30.68,29.22-30.68s29.22,10.23,29.22,30.68-9.74,30.62-29.22,30.62-29.14-10.21-29.22-30.62Zm29.22,21.91c12.27,0,18.41-7.38,18.41-22.15s-6.14-21.68-18.41-21.68-18.41,7.23-18.41,21.68,6.14,22.15,18.41,22.15Z"/><path class="cls-3" d="M434.54,193.82c-7.31-6.48-18.83-9.03-28.38-7.63-11.68,1.72-21.95,8.77-34.15,7.33,3.28,3.69,9.91,3.45,14.35,3.09,6.53-.52,12.43-2.47,18.47-4.86,6.44-2.55,13.37-2.93,20.14-1.37,3.44,.79,6.38,2.16,9.58,3.44"/><path class="cls-4" d="M447.52,189.05c-24.33-20.1-58.47-17.87-86.89-8.82-9.13,2.91-18.26,6.88-27.7,8.65-14.52,2.73-29.79,.56-44.12-2.23,8.42,7.95,23.01,9.61,33.96,10.38,17.31,1.21,32.71-2.18,49.04-7.46,12.38-4,25.26-8.2,38.4-8.4,12.83-.19,25.26,3.89,37.3,7.87"/><path class="cls-2" d="M438.34,83.89h-13.67l-29.12,70.55-29.86-70.55h-13.85l36.57,85.73c2.08-.17,6.08-.35,13.71-.4l36.22-85.33Z"/></g><path class="cls-2" d="M958.75,232.72l-399.74-3.12c-8.26,0-13.26-6.55-14.96-14.51l-4.67-21.98c-1.13-8.05,6.7-14.51,14.96-14.51l409.57-5.02c8.26,0,16.16,6.31,14.96,14.51l-5.17,30.13c-1.86,8.63-6.7,14.51-14.96,14.51Z"/><g><path class="cls-5" d="M589.25,194.89l-2.32,1.78c-1.28-1.66-2.81-2.92-4.6-3.78-1.79-.86-3.76-1.29-5.9-1.29-2.34,0-4.51,.56-6.51,1.69-2,1.13-3.54,2.64-4.64,4.53-1.1,1.9-1.65,4.03-1.65,6.4,0,3.58,1.23,6.57,3.68,8.97,2.46,2.4,5.55,3.6,9.3,3.6,4.12,0,7.56-1.61,10.32-4.83l2.32,1.76c-1.46,1.86-3.29,3.3-5.48,4.32-2.19,1.02-4.64,1.53-7.34,1.53-5.14,0-9.19-1.71-12.16-5.13-2.49-2.89-3.73-6.38-3.73-10.46,0-4.3,1.51-7.92,4.52-10.85,3.02-2.94,6.79-4.4,11.33-4.4,2.74,0,5.22,.54,7.43,1.63,2.21,1.09,4.02,2.61,5.43,4.56Z"/><path class="cls-5" d="M595.3,189.44h5.85c3.26,0,5.47,.13,6.63,.4,1.74,.4,3.16,1.26,4.25,2.57,1.09,1.31,1.64,2.93,1.64,4.85,0,1.6-.38,3.01-1.13,4.22-.75,1.21-1.83,2.13-3.22,2.75-1.4,.62-3.33,.94-5.79,.95l10.56,13.64h-3.63l-10.56-13.64h-1.66v13.64h-2.93v-29.37Zm2.93,2.88v9.98l5.06,.04c1.96,0,3.41-.19,4.35-.56,.94-.37,1.67-.97,2.2-1.79,.53-.82,.79-1.73,.79-2.75s-.27-1.88-.8-2.69c-.53-.81-1.23-1.38-2.1-1.73-.87-.35-2.31-.52-4.32-.52h-5.18Z"/><path class="cls-5" d="M619.98,189.44h16.83v2.88h-13.9v9.21h13.78v2.88h-13.78v11.54h13.78v2.88h-16.72v-29.37Z"/><path class="cls-5" d="M669.24,194.89l-2.32,1.78c-1.28-1.66-2.81-2.92-4.6-3.78-1.79-.86-3.76-1.29-5.9-1.29-2.34,0-4.51,.56-6.51,1.69-2,1.13-3.54,2.64-4.64,4.53-1.1,1.9-1.65,4.03-1.65,6.4,0,3.58,1.23,6.57,3.68,8.97,2.46,2.4,5.55,3.6,9.3,3.6,4.12,0,7.56-1.61,10.32-4.83l2.32,1.76c-1.46,1.86-3.29,3.3-5.48,4.32-2.19,1.02-4.64,1.53-7.34,1.53-5.14,0-9.19-1.71-12.16-5.13-2.49-2.89-3.73-6.38-3.73-10.46,0-4.3,1.51-7.92,4.52-10.85,3.02-2.94,6.79-4.4,11.33-4.4,2.74,0,5.22,.54,7.43,1.63,2.21,1.09,4.02,2.61,5.43,4.56Z"/><path class="cls-5" d="M674.71,189.44h2.93v29.37h-2.93v-29.37Z"/><path class="cls-5" d="M684.4,189.44h16.83v2.88h-13.9v9.21h13.78v2.88h-13.78v11.54h13.78v2.88h-16.72v-29.37Z"/><path class="cls-5" d="M706.32,218.81v-29.37h.64l19.55,22.52v-22.52h2.89v29.37h-.66l-19.39-22.24v22.24h-3.04Z"/><path class="cls-5" d="M736.56,218.81v-29.37h6.09c4.39,0,7.58,.35,9.56,1.06,2.85,1,5.07,2.73,6.68,5.19,1.6,2.46,2.41,5.4,2.41,8.81,0,2.94-.64,5.53-1.91,7.77-1.27,2.24-2.92,3.89-4.95,4.95-2.03,1.06-4.88,1.6-8.54,1.6h-9.35Zm2.82-2.78h3.39c4.06,0,6.88-.25,8.45-.76,2.21-.72,3.95-2.01,5.21-3.88,1.27-1.87,1.9-4.15,1.9-6.85,0-2.83-.69-5.25-2.06-7.26-1.37-2.01-3.28-3.39-5.73-4.13-1.84-.56-4.87-.84-9.09-.84h-2.08v23.72Z"/><path class="cls-5" d="M780.98,188.7c4.45,0,8.17,1.49,11.17,4.45,3,2.97,4.5,6.62,4.5,10.96s-1.5,7.95-4.49,10.94c-2.99,3-6.64,4.49-10.94,4.49s-8.03-1.49-11.03-4.47c-3-2.98-4.5-6.59-4.5-10.82,0-2.82,.68-5.44,2.05-7.85,1.37-2.41,3.23-4.3,5.59-5.66,2.36-1.36,4.91-2.05,7.65-2.05Zm.13,2.86c-2.17,0-4.23,.57-6.18,1.7-1.95,1.13-3.47,2.66-4.56,4.58-1.09,1.92-1.64,4.06-1.64,6.42,0,3.49,1.21,6.44,3.63,8.84,2.42,2.4,5.34,3.61,8.75,3.61,2.28,0,4.39-.55,6.33-1.66,1.94-1.11,3.45-2.62,4.54-4.54,1.09-1.92,1.63-4.05,1.63-6.39s-.54-4.44-1.63-6.33c-1.09-1.89-2.62-3.39-4.59-4.53-1.97-1.13-4.06-1.7-6.28-1.7Z"/><path class="cls-5" d="M823.48,189.44h2.93v19.83c0,3.05-.24,5.17-.71,6.36-.47,1.19-1.26,2.14-2.37,2.86-1.1,.71-2.44,1.07-4.01,1.07-1.19,0-2.35-.23-3.5-.69-1.15-.46-2.43-1.27-3.83-2.43l1.56-2.34c1.54,1.08,2.81,1.84,3.82,2.28,.66,.29,1.32,.44,1.96,.44,.84,0,1.6-.25,2.29-.76,.69-.51,1.17-1.18,1.44-2.02,.27-.84,.41-2.46,.41-4.87v-19.73Z"/><path class="cls-5" d="M833.67,189.44h2.93v17.73c0,2.1,.04,3.42,.12,3.93,.15,1.16,.49,2.13,1.02,2.91,.53,.78,1.35,1.43,2.46,1.96,1.1,.53,2.22,.79,3.34,.79,.97,0,1.9-.21,2.8-.62,.89-.41,1.64-.99,2.24-1.72,.6-.73,1.04-1.62,1.32-2.66,.2-.74,.3-2.28,.3-4.59v-17.73h2.93v17.73c0,2.62-.26,4.74-.77,6.36-.51,1.62-1.54,3.03-3.08,4.22-1.54,1.2-3.4,1.8-5.58,1.8-2.37,0-4.4-.57-6.09-1.7-1.69-1.13-2.82-2.63-3.4-4.49-.36-1.14-.54-3.21-.54-6.19v-17.73Z"/><path class="cls-5" d="M860.36,218.81v-29.37h.64l19.55,22.52v-22.52h2.89v29.37h-.66l-19.39-22.24v22.24h-3.04Z"/><path class="cls-5" d="M887.68,192.32v-2.88h16.09v2.88h-6.55v26.5h-3v-26.5h-6.55Z"/><path class="cls-5" d="M922,188.7c4.45,0,8.17,1.49,11.17,4.45,3,2.97,4.5,6.62,4.5,10.96s-1.5,7.95-4.49,10.94c-2.99,3-6.64,4.49-10.94,4.49s-8.03-1.49-11.03-4.47c-3-2.98-4.5-6.59-4.5-10.82,0-2.82,.68-5.44,2.05-7.85,1.37-2.41,3.23-4.3,5.59-5.66,2.36-1.36,4.91-2.05,7.65-2.05Zm.13,2.86c-2.17,0-4.23,.57-6.18,1.7-1.95,1.13-3.47,2.66-4.56,4.58-1.09,1.92-1.64,4.06-1.64,6.42,0,3.49,1.21,6.44,3.63,8.84,2.42,2.4,5.34,3.61,8.75,3.61,2.28,0,4.39-.55,6.33-1.66,1.94-1.11,3.45-2.62,4.54-4.54,1.09-1.92,1.63-4.05,1.63-6.39s-.54-4.44-1.63-6.33c-1.09-1.89-2.62-3.39-4.59-4.53-1.97-1.13-4.06-1.7-6.28-1.7Z"/><path class="cls-5" d="M940.52,213.34l2.5-1.5c1.76,3.24,3.79,4.85,6.09,4.85,.98,0,1.91-.23,2.77-.69,.87-.46,1.53-1.07,1.98-1.85,.45-.77,.68-1.59,.68-2.46,0-.98-.33-1.95-1-2.9-.92-1.3-2.59-2.87-5.03-4.71-2.45-1.85-3.97-3.19-4.57-4.01-1.04-1.38-1.56-2.88-1.56-4.49,0-1.28,.31-2.44,.92-3.49,.61-1.05,1.47-1.88,2.58-2.49,1.11-.61,2.32-.91,3.62-.91,1.38,0,2.68,.34,3.88,1.03,1.21,.69,2.48,1.95,3.83,3.78l-2.4,1.82c-1.1-1.46-2.05-2.43-2.83-2.9-.78-.47-1.63-.7-2.54-.7-1.19,0-2.15,.36-2.91,1.08-.75,.72-1.13,1.6-1.13,2.66,0,.64,.13,1.26,.4,1.86,.26,.6,.75,1.25,1.46,1.96,.39,.37,1.65,1.35,3.79,2.93,2.54,1.88,4.29,3.55,5.23,5.01,.94,1.46,1.42,2.93,1.42,4.41,0,2.13-.81,3.98-2.43,5.55-1.62,1.57-3.58,2.36-5.9,2.36-1.78,0-3.4-.48-4.85-1.43-1.45-.95-2.79-2.55-4.01-4.78Z"/></g></svg>